<svg width="58" height="72" viewBox="0 0 58 72" fill="none" xmlns="http://www.w3.org/2000/svg">
<defs>
<radialGradient id="paint0_radial" cx="0" cy="0" r="1" gradientUnits="userSpaceOnUse" gradientTransform="translate(28.7397 30.9133) rotate(90) scale(32.8454 26.2174)">
<stop stop-color="#80FF8C"/>
<stop offset="1" stop-color="#01A611"/>
</radialGradient>
</defs>
<circle cx="28.5" cy="29.5" r="20.5" fill="white"/>
<path fill-rule="evenodd" clip-rule="evenodd" d="M8.49474 8.31111C13.8612 2.98638 21.1077 -0.000378119 28.6592 3.59043e-08C36.2107 -0.000378119 43.4572 2.98638 48.8237 8.31111C54.1901 13.6358 57.2429 20.8682 57.3184 28.4363C57.3184 48.1119 32.2416 70.0135 30.9878 70.947C30.3389 71.5033 29.5131 71.809 28.6592 71.809C27.8053 71.809 26.9795 71.5033 26.3306 70.947L26.3248 70.942C25.1679 69.9371 0 48.0775 0 28.4363C0.0755149 20.8682 3.12826 13.6358 8.49474 8.31111ZM33.09 25.2272C30.6081 22.8658 26.7103 22.8658 24.2283 25.2272L16.8345 32.2622C12.4574 36.4267 15.7303 43.8527 21.7666 43.5964C24.3288 43.4876 26.7406 43.4162 28.6592 43.4162C30.5778 43.4162 32.9896 43.4876 35.5518 43.5964C41.588 43.8527 44.8609 36.4267 40.4839 32.2621L33.09 25.2272ZM44.7668 23.8511C44.7668 25.9571 43.0352 27.6643 40.8992 27.6643C38.7631 27.6643 37.0315 25.9571 37.0315 23.8511C37.0315 21.7451 38.7631 20.0379 40.8992 20.0379C43.0352 20.0379 44.7668 21.7451 44.7668 23.8511ZM16.6676 27.6643C14.5316 27.6643 12.8 25.9571 12.8 23.8511C12.8 21.7451 14.5316 20.0379 16.6676 20.0379C18.8037 20.0379 20.5353 21.7451 20.5353 23.8511C20.5353 25.9571 18.8037 27.6643 16.6676 27.6643ZM37.2801 17.7403C37.2801 19.8463 35.5484 21.5535 33.4124 21.5535C31.2763 21.5535 29.5447 19.8463 29.5447 17.7403C29.5447 15.6343 31.2763 13.927 33.4124 13.927C35.5484 13.927 37.2801 15.6343 37.2801 17.7403ZM24.1544 21.5535C22.0184 21.5535 20.2867 19.8463 20.2867 17.7403C20.2867 15.6343 22.0184 13.927 24.1544 13.927C26.2905 13.927 28.0221 15.6343 28.0221 17.7403C28.0221 19.8463 26.2905 21.5535 24.1544 21.5535Z" fill="url(#paint0_radial)"/>
</svg>
