<svg width="379" height="40" viewBox="0 0 379 40" fill="none" xmlns="http://www.w3.org/2000/svg">
<rect width="379" height="40" rx="12" fill="#E5E5E5"/>
<path d="M25.7251 26.168C24.4824 26.168 23.4984 25.872 22.7731 25.28C22.0531 24.688 21.6931 23.8 21.6931 22.616V22.096H23.4291V22.584C23.4291 23.3093 23.6238 23.8427 24.0131 24.184C24.4024 24.52 24.9704 24.688 25.7171 24.688C26.4851 24.688 27.0664 24.56 27.4611 24.304C27.8611 24.0427 28.0611 23.624 28.0611 23.048C28.0611 22.6373 27.9358 22.2933 27.6851 22.016C27.4398 21.7333 27.0984 21.4907 26.6611 21.288C26.2291 21.0853 25.7304 20.896 25.1651 20.72C24.5251 20.5227 23.9491 20.272 23.4371 19.968C22.9251 19.6587 22.5198 19.2747 22.2211 18.816C21.9224 18.352 21.7731 17.7867 21.7731 17.12C21.7731 16.464 21.9384 15.9067 22.2691 15.448C22.5998 14.9893 23.0584 14.6427 23.6451 14.408C24.2318 14.168 24.9038 14.048 25.6611 14.048C26.8664 14.048 27.8344 14.328 28.5651 14.888C29.3011 15.448 29.6691 16.2933 29.6691 17.424V17.984H27.9251V17.496C27.9251 16.808 27.7358 16.3093 27.3571 16C26.9838 15.6853 26.4291 15.528 25.6931 15.528C24.9784 15.528 24.4264 15.656 24.0371 15.912C23.6531 16.1627 23.4611 16.5653 23.4611 17.12C23.4611 17.536 23.5838 17.8827 23.8291 18.16C24.0798 18.4373 24.4211 18.6773 24.8531 18.88C25.2904 19.0773 25.7864 19.2667 26.3411 19.448C27.0451 19.6827 27.6504 19.9467 28.1571 20.24C28.6691 20.5333 29.0638 20.8987 29.3411 21.336C29.6184 21.7733 29.7571 22.3253 29.7571 22.992C29.7571 24 29.3918 24.7813 28.6611 25.336C27.9358 25.8907 26.9571 26.168 25.7251 26.168ZM40.0472 23.328C40.0046 23.7867 39.8179 24.2347 39.4872 24.672C39.1566 25.1093 38.6846 25.4693 38.0712 25.752C37.4579 26.0347 36.7112 26.176 35.8312 26.176C34.9512 26.176 34.1752 25.9893 33.5032 25.616C32.8366 25.2427 32.3166 24.7253 31.9432 24.064C31.5699 23.4027 31.3832 22.64 31.3832 21.776C31.3832 20.9013 31.5726 20.1333 31.9512 19.472C32.3299 18.8107 32.8526 18.296 33.5192 17.928C34.1912 17.5547 34.9646 17.368 35.8392 17.368C36.7246 17.368 37.4899 17.5547 38.1352 17.928C38.7859 18.3013 39.2872 18.816 39.6392 19.472C39.9912 20.128 40.1672 20.8827 40.1672 21.736C40.1672 21.832 40.1646 21.9493 40.1592 22.088C40.1539 22.2213 40.1459 22.312 40.1352 22.36H33.1192C33.2259 23.1013 33.5166 23.68 33.9912 24.096C34.4712 24.512 35.1032 24.72 35.8872 24.72C36.4366 24.72 36.8846 24.648 37.2312 24.504C37.5832 24.36 37.8472 24.1813 38.0232 23.968C38.1992 23.7547 38.2979 23.5413 38.3192 23.328H40.0472ZM35.8552 18.808C35.1352 18.808 34.5352 19.0027 34.0552 19.392C33.5752 19.7813 33.2712 20.32 33.1432 21.008H38.3512C38.3086 20.4107 38.0792 19.896 37.6632 19.464C37.2472 19.0267 36.6446 18.808 35.8552 18.808ZM45.1262 26.168C44.1662 26.168 43.3902 25.944 42.7982 25.496C42.2116 25.048 41.9182 24.424 41.9182 23.624C41.9182 23.0533 42.0676 22.5813 42.3662 22.208C42.6702 21.8347 43.0862 21.5467 43.6142 21.344C44.1476 21.136 44.7529 21 45.4302 20.936C46.4329 20.8347 47.1422 20.736 47.5582 20.64C47.9742 20.544 48.1822 20.3867 48.1822 20.168V20.152C48.1822 19.72 47.9982 19.392 47.6302 19.168C47.2622 18.944 46.7369 18.832 46.0542 18.832C45.3342 18.832 44.7769 18.96 44.3822 19.216C43.9929 19.4667 43.7982 19.8667 43.7982 20.416H42.0942C42.0942 19.7653 42.2622 19.2133 42.5982 18.76C42.9396 18.3067 43.4089 17.9627 44.0062 17.728C44.6036 17.488 45.2889 17.368 46.0622 17.368C46.7716 17.368 47.4169 17.4773 47.9982 17.696C48.5849 17.9093 49.0516 18.2293 49.3982 18.656C49.7449 19.0827 49.9182 19.6133 49.9182 20.248V24.304C49.9182 24.5013 49.9236 24.6933 49.9342 24.88C49.9502 25.0613 49.9822 25.224 50.0302 25.368C50.0782 25.5333 50.1342 25.672 50.1982 25.784C50.2676 25.8907 50.3236 25.9627 50.3662 26H48.6382C48.6062 25.968 48.5582 25.9013 48.4942 25.8C48.4356 25.6933 48.3822 25.5707 48.3342 25.432C48.2916 25.3147 48.2596 25.1813 48.2382 25.032C47.9342 25.3787 47.5129 25.656 46.9742 25.864C46.4409 26.0667 45.8249 26.168 45.1262 26.168ZM45.4862 24.728C45.9822 24.728 46.4356 24.6507 46.8462 24.496C47.2569 24.336 47.5822 24.096 47.8222 23.776C48.0676 23.4507 48.1902 23.0427 48.1902 22.552V21.816C47.8596 21.912 47.4889 21.992 47.0782 22.056C46.6676 22.1147 46.2489 22.1653 45.8222 22.208C45.1022 22.2773 44.5609 22.4027 44.1982 22.584C43.8356 22.7653 43.6542 23.0693 43.6542 23.496C43.6542 24.3173 44.2649 24.728 45.4862 24.728ZM52.106 26V17.504H53.842V18.632C54.0713 18.2587 54.3833 17.9547 54.778 17.72C55.1726 17.4853 55.6606 17.368 56.242 17.368C56.5833 17.368 56.858 17.3947 57.066 17.448C57.2793 17.5013 57.41 17.544 57.458 17.576L57.09 19.208C57.0366 19.1707 56.9273 19.1227 56.762 19.064C56.602 19.0053 56.378 18.976 56.09 18.976C55.5086 18.976 55.0526 19.1093 54.722 19.376C54.3966 19.6427 54.1673 19.976 54.034 20.376C53.906 20.7707 53.842 21.168 53.842 21.568V26H52.106ZM62.8997 26.168C62.0411 26.168 61.2757 25.9893 60.6037 25.632C59.9317 25.2693 59.4011 24.7573 59.0117 24.096C58.6277 23.4293 58.4357 22.6427 58.4357 21.736C58.4357 20.8347 58.6277 20.0587 59.0117 19.408C59.4011 18.752 59.9317 18.248 60.6037 17.896C61.2757 17.544 62.0411 17.368 62.8997 17.368C63.7584 17.368 64.4891 17.536 65.0917 17.872C65.6944 18.2027 66.1557 18.6187 66.4757 19.12C66.7957 19.6213 66.9557 20.128 66.9557 20.64V20.696H65.2357C65.2357 20.6693 65.2331 20.64 65.2277 20.608C65.2224 20.5707 65.2171 20.536 65.2117 20.504C65.1424 20.0347 64.9024 19.6453 64.4917 19.336C64.0811 19.0213 63.5451 18.864 62.8837 18.864C62.3931 18.864 61.9451 18.9707 61.5397 19.184C61.1344 19.392 60.8091 19.7093 60.5637 20.136C60.3184 20.5627 60.1957 21.096 60.1957 21.736C60.1957 22.376 60.3157 22.9147 60.5557 23.352C60.8011 23.784 61.1264 24.112 61.5317 24.336C61.9424 24.56 62.3931 24.672 62.8837 24.672C63.6731 24.672 64.2517 24.4933 64.6197 24.136C64.9931 23.7787 65.1984 23.36 65.2357 22.88H66.9557C66.9557 23.3973 66.8011 23.9093 66.4917 24.416C66.1824 24.9227 65.7264 25.3413 65.1237 25.672C64.5211 26.0027 63.7797 26.168 62.8997 26.168ZM68.9535 26V13.496H70.6895V18.56C71.0148 18.192 71.4175 17.9013 71.8975 17.688C72.3828 17.4747 72.9188 17.368 73.5055 17.368C74.5295 17.368 75.3241 17.6747 75.8895 18.288C76.4601 18.896 76.7455 19.744 76.7455 20.832V26H75.0095V21.264C75.0095 20.5013 74.8521 19.9227 74.5375 19.528C74.2281 19.1333 73.7188 18.936 73.0095 18.936C72.2948 18.936 71.7295 19.1387 71.3135 19.544C70.8975 19.9493 70.6895 20.4667 70.6895 21.096V26H68.9535Z" fill="#939393"/>
<path fill-rule="evenodd" clip-rule="evenodd" d="M353.869 23.4575C356.313 20.319 356.092 15.7784 353.207 12.8932C350.082 9.769 345.017 9.769 341.893 12.8932C338.769 16.0174 338.769 21.0827 341.893 24.2069C344.778 27.0921 349.319 27.3128 352.457 24.8691C352.471 24.8844 352.485 24.8994 352.5 24.914L356.742 29.1567C357.133 29.5472 357.766 29.5472 358.156 29.1567C358.547 28.7661 358.547 28.133 358.156 27.7424L353.914 23.4998C353.899 23.4852 353.884 23.4711 353.869 23.4575ZM351.792 14.3074C354.136 16.6506 354.136 20.4495 351.792 22.7927C349.449 25.1358 345.65 25.1358 343.307 22.7927C340.964 20.4495 340.964 16.6506 343.307 14.3074C345.65 11.9643 349.449 11.9643 351.792 14.3074Z" fill="#939393"/>
</svg>
